<mxfile host="Electron" agent="Mozilla/5.0 (Windows NT 10.0; Win64; x64) AppleWebKit/537.36 (KHTML, like Gecko) draw.io/27.0.9 Chrome/134.0.6998.205 Electron/35.4.0 Safari/537.36" version="27.0.9">
  <diagram name="Page-1" id="t2g9nPBRQ7T25NPvsI95">
    <mxGraphModel dx="2723" dy="922" grid="1" gridSize="10" guides="1" tooltips="1" connect="1" arrows="1" fold="1" page="1" pageScale="1" pageWidth="1169" pageHeight="827" math="0" shadow="0">
      <root>
        <mxCell id="0" />
        <mxCell id="1" parent="0" />
        <mxCell id="wkqXvRpw8WBGLsTu2kj4-1" value="Data Lineage" style="text;html=1;align=center;verticalAlign=middle;whiteSpace=wrap;rounded=0;fontSize=21;fontStyle=5" parent="1" vertex="1">
          <mxGeometry x="-694" y="40" width="220" height="40" as="geometry" />
        </mxCell>
        <mxCell id="aZa3ijhRNjmpXaoFA8mI-3" value="" style="rounded=0;whiteSpace=wrap;html=1;fillColor=none;dashed=1;fontColor=#333333;strokeColor=#999999;" parent="1" vertex="1">
          <mxGeometry x="-1014" y="180" width="120" height="500" as="geometry" />
        </mxCell>
        <mxCell id="aZa3ijhRNjmpXaoFA8mI-4" value="Sources" style="rounded=0;whiteSpace=wrap;html=1;fontSize=24;strokeColor=none;" parent="1" vertex="1">
          <mxGeometry x="-1004" y="160" width="100" height="40" as="geometry" />
        </mxCell>
        <mxCell id="7Mjs_d66zHNKERv0nF8z-3" style="edgeStyle=orthogonalEdgeStyle;rounded=0;orthogonalLoop=1;jettySize=auto;html=1;entryX=0;entryY=0.5;entryDx=0;entryDy=0;" parent="1" source="aZa3ijhRNjmpXaoFA8mI-5" target="aZa3ijhRNjmpXaoFA8mI-25" edge="1">
          <mxGeometry relative="1" as="geometry" />
        </mxCell>
        <mxCell id="7Mjs_d66zHNKERv0nF8z-4" style="edgeStyle=orthogonalEdgeStyle;rounded=0;orthogonalLoop=1;jettySize=auto;html=1;entryX=0;entryY=0.5;entryDx=0;entryDy=0;" parent="1" source="aZa3ijhRNjmpXaoFA8mI-5" target="aZa3ijhRNjmpXaoFA8mI-23" edge="1">
          <mxGeometry relative="1" as="geometry" />
        </mxCell>
        <mxCell id="aZa3ijhRNjmpXaoFA8mI-5" value="&lt;b&gt;&lt;font style=&quot;font-size: 15px;&quot;&gt;CBS&lt;/font&gt;&lt;/b&gt;" style="image;aspect=fixed;html=1;points=[];align=center;fontSize=12;image=img/lib/azure2/general/Folder_Blank.svg;imageBackground=none;imageBorder=none;shadow=0;" parent="1" vertex="1">
          <mxGeometry x="-976.9999999999999" y="280" width="46" height="37.33" as="geometry" />
        </mxCell>
        <mxCell id="aZa3ijhRNjmpXaoFA8mI-21" value="Bronze Layer" style="rounded=0;whiteSpace=wrap;html=1;fillColor=#ffe6cc;strokeColor=default;fontSize=16;fontStyle=1;gradientColor=none;glass=0;shadow=0;" parent="1" vertex="1">
          <mxGeometry x="-781" y="160" width="140" height="40" as="geometry" />
        </mxCell>
        <mxCell id="aZa3ijhRNjmpXaoFA8mI-22" value="" style="rounded=0;whiteSpace=wrap;html=1;fillColor=#ffe6cc;strokeColor=light-dark(#000000, #996500);fontSize=16;fontStyle=1;glass=0;shadow=0;" parent="1" vertex="1">
          <mxGeometry x="-781" y="220" width="140" height="460" as="geometry" />
        </mxCell>
        <mxCell id="-YeCzzPsT2VVVUYpRd2U-23" style="edgeStyle=orthogonalEdgeStyle;rounded=0;orthogonalLoop=1;jettySize=auto;html=1;entryX=0;entryY=0.5;entryDx=0;entryDy=0;" parent="1" source="aZa3ijhRNjmpXaoFA8mI-23" target="-YeCzzPsT2VVVUYpRd2U-3" edge="1">
          <mxGeometry relative="1" as="geometry" />
        </mxCell>
        <mxCell id="aZa3ijhRNjmpXaoFA8mI-23" value="cbs_acc_master" style="rounded=1;whiteSpace=wrap;html=1;fillColor=default;strokeColor=light-dark(#000000, #996500);fontSize=12;fontStyle=0;" parent="1" vertex="1">
          <mxGeometry x="-776" y="317.33" width="130" height="30" as="geometry" />
        </mxCell>
        <mxCell id="-YeCzzPsT2VVVUYpRd2U-18" style="edgeStyle=orthogonalEdgeStyle;rounded=0;orthogonalLoop=1;jettySize=auto;html=1;entryX=0;entryY=0.5;entryDx=0;entryDy=0;" parent="1" source="aZa3ijhRNjmpXaoFA8mI-24" target="-YeCzzPsT2VVVUYpRd2U-4" edge="1">
          <mxGeometry relative="1" as="geometry" />
        </mxCell>
        <mxCell id="aZa3ijhRNjmpXaoFA8mI-24" value="ref_branch_master" style="rounded=1;whiteSpace=wrap;html=1;fillColor=default;strokeColor=light-dark(#000000, #996500);fontSize=12;fontStyle=0" parent="1" vertex="1">
          <mxGeometry x="-776" y="384" width="130" height="30" as="geometry" />
        </mxCell>
        <mxCell id="-YeCzzPsT2VVVUYpRd2U-19" style="edgeStyle=orthogonalEdgeStyle;rounded=0;orthogonalLoop=1;jettySize=auto;html=1;entryX=0;entryY=0.5;entryDx=0;entryDy=0;" parent="1" source="aZa3ijhRNjmpXaoFA8mI-25" target="-YeCzzPsT2VVVUYpRd2U-5" edge="1">
          <mxGeometry relative="1" as="geometry" />
        </mxCell>
        <mxCell id="aZa3ijhRNjmpXaoFA8mI-25" value="cbs_cust_master" style="rounded=1;whiteSpace=wrap;html=1;fillColor=default;strokeColor=light-dark(#000000, #996500);fontSize=12;fontStyle=0" parent="1" vertex="1">
          <mxGeometry x="-776" y="250" width="130" height="30" as="geometry" />
        </mxCell>
        <mxCell id="-YeCzzPsT2VVVUYpRd2U-20" style="edgeStyle=orthogonalEdgeStyle;rounded=0;orthogonalLoop=1;jettySize=auto;html=1;entryX=0;entryY=0.5;entryDx=0;entryDy=0;" parent="1" source="aZa3ijhRNjmpXaoFA8mI-26" target="-YeCzzPsT2VVVUYpRd2U-6" edge="1">
          <mxGeometry relative="1" as="geometry" />
        </mxCell>
        <mxCell id="aZa3ijhRNjmpXaoFA8mI-26" value="ref_txn_codes" style="rounded=1;whiteSpace=wrap;html=1;fillColor=default;strokeColor=light-dark(#000000, #996500);fontSize=12;fontStyle=0" parent="1" vertex="1">
          <mxGeometry x="-776" y="454.65999999999997" width="130" height="30" as="geometry" />
        </mxCell>
        <mxCell id="aZa3ijhRNjmpXaoFA8mI-27" value="trp_txn_log" style="rounded=1;whiteSpace=wrap;html=1;fillColor=default;strokeColor=light-dark(#000000, #996500);fontSize=12;fontStyle=0" parent="1" vertex="1">
          <mxGeometry x="-776" y="562.6800000000001" width="130" height="30" as="geometry" />
        </mxCell>
        <mxCell id="-YeCzzPsT2VVVUYpRd2U-22" style="edgeStyle=orthogonalEdgeStyle;rounded=0;orthogonalLoop=1;jettySize=auto;html=1;entryX=0;entryY=0.5;entryDx=0;entryDy=0;" parent="1" target="-YeCzzPsT2VVVUYpRd2U-8" edge="1">
          <mxGeometry relative="1" as="geometry">
            <mxPoint x="-646" y="585" as="sourcePoint" />
          </mxGeometry>
        </mxCell>
        <mxCell id="7Mjs_d66zHNKERv0nF8z-7" style="edgeStyle=orthogonalEdgeStyle;rounded=0;orthogonalLoop=1;jettySize=auto;html=1;entryX=0;entryY=0.5;entryDx=0;entryDy=0;" parent="1" source="aZa3ijhRNjmpXaoFA8mI-7" target="aZa3ijhRNjmpXaoFA8mI-27" edge="1">
          <mxGeometry relative="1" as="geometry" />
        </mxCell>
        <mxCell id="aZa3ijhRNjmpXaoFA8mI-7" value="&lt;b&gt;&lt;font style=&quot;font-size: 15px;&quot;&gt;TPS&lt;/font&gt;&lt;/b&gt;" style="image;aspect=fixed;html=1;points=[];align=center;fontSize=12;image=img/lib/azure2/general/Folder_Blank.svg;" parent="1" vertex="1">
          <mxGeometry x="-976.9999999999999" y="559.0100000000001" width="46" height="37.33" as="geometry" />
        </mxCell>
        <mxCell id="-YeCzzPsT2VVVUYpRd2U-1" value="Silver Layer" style="rounded=0;whiteSpace=wrap;html=1;fillColor=#f5f5f5;strokeColor=light-dark(#000000, #959595);fontSize=16;fontStyle=1;fontColor=#333333;" parent="1" vertex="1">
          <mxGeometry x="-537" y="160" width="140" height="40" as="geometry" />
        </mxCell>
        <mxCell id="feMU8Ohwre8aJyZwpjGb-1" value="Gold Layer" style="rounded=0;whiteSpace=wrap;html=1;fillColor=#fff2cc;strokeColor=light-dark(#000000, #6d5100);fontSize=16;fontStyle=1;" parent="1" vertex="1">
          <mxGeometry x="-294" y="160" width="140" height="40" as="geometry" />
        </mxCell>
        <mxCell id="-YeCzzPsT2VVVUYpRd2U-2" value="" style="rounded=0;whiteSpace=wrap;html=1;fillColor=#f5f5f5;strokeColor=light-dark(#000000, #959595);fontSize=16;fontStyle=1;fontColor=#333333;" parent="1" vertex="1">
          <mxGeometry x="-537" y="220" width="140" height="460" as="geometry" />
        </mxCell>
        <mxCell id="feMU8Ohwre8aJyZwpjGb-2" value="" style="rounded=0;whiteSpace=wrap;html=1;fillColor=#fff2cc;strokeColor=light-dark(#000000, #6d5100);fontSize=16;fontStyle=1;" parent="1" vertex="1">
          <mxGeometry x="-294" y="220" width="140" height="460" as="geometry" />
        </mxCell>
        <mxCell id="-YeCzzPsT2VVVUYpRd2U-3" value="&lt;span style=&quot;color: rgb(0, 0, 0);&quot;&gt;cbs_acc_master&lt;/span&gt;" style="rounded=1;whiteSpace=wrap;html=1;fillColor=default;strokeColor=light-dark(#000000, #959595);fontSize=12;fontStyle=0;fontColor=#333333;" parent="1" vertex="1">
          <mxGeometry x="-532" y="317.33" width="130" height="30" as="geometry" />
        </mxCell>
        <mxCell id="feMU8Ohwre8aJyZwpjGb-3" value="dim_customer" style="rounded=1;whiteSpace=wrap;html=1;fillColor=default;strokeColor=light-dark(#000000, #6d5100);fontSize=12;fontStyle=0;" parent="1" vertex="1">
          <mxGeometry x="-289" y="330" width="130" height="30" as="geometry" />
        </mxCell>
        <mxCell id="-YeCzzPsT2VVVUYpRd2U-4" value="&lt;span style=&quot;color: rgb(0, 0, 0);&quot;&gt;ref_branch_master&lt;/span&gt;" style="rounded=1;whiteSpace=wrap;html=1;fillColor=default;strokeColor=light-dark(#000000, #959595);fontSize=12;fontStyle=0;fontColor=#333333;" parent="1" vertex="1">
          <mxGeometry x="-532" y="384" width="130" height="30" as="geometry" />
        </mxCell>
        <mxCell id="feMU8Ohwre8aJyZwpjGb-4" value="dim_account" style="rounded=1;whiteSpace=wrap;html=1;fillColor=default;strokeColor=light-dark(#000000, #6d5100);fontSize=12;fontStyle=0;" parent="1" vertex="1">
          <mxGeometry x="-289" y="435" width="130" height="30" as="geometry" />
        </mxCell>
        <mxCell id="-YeCzzPsT2VVVUYpRd2U-5" value="&lt;span style=&quot;color: rgb(0, 0, 0);&quot;&gt;cbs_cust_master&lt;/span&gt;" style="rounded=1;whiteSpace=wrap;html=1;fillColor=default;strokeColor=light-dark(#000000, #959595);fontSize=12;fontStyle=0;fontColor=#333333;" parent="1" vertex="1">
          <mxGeometry x="-532" y="250" width="130" height="30" as="geometry" />
        </mxCell>
        <mxCell id="feMU8Ohwre8aJyZwpjGb-5" value="fact_transaction" style="rounded=1;whiteSpace=wrap;html=1;fillColor=default;strokeColor=light-dark(#000000, #6d5100);fontSize=12;fontStyle=0;" parent="1" vertex="1">
          <mxGeometry x="-289" y="540" width="130" height="30" as="geometry" />
        </mxCell>
        <mxCell id="-YeCzzPsT2VVVUYpRd2U-6" value="&lt;span style=&quot;color: rgb(0, 0, 0);&quot;&gt;ref_txn_codes&lt;/span&gt;" style="rounded=1;whiteSpace=wrap;html=1;fillColor=default;strokeColor=#000000;fontSize=12;fontStyle=0;fontColor=#333333;" parent="1" vertex="1">
          <mxGeometry x="-532" y="454.65999999999997" width="130" height="30" as="geometry" />
        </mxCell>
        <mxCell id="-YeCzzPsT2VVVUYpRd2U-8" value="&lt;span style=&quot;color: rgb(0, 0, 0);&quot;&gt;trp_txn_log&lt;/span&gt;" style="rounded=1;whiteSpace=wrap;html=1;fillColor=default;strokeColor=light-dark(#000000, #959595);fontSize=12;fontStyle=0;fontColor=#333333;" parent="1" vertex="1">
          <mxGeometry x="-532" y="570" width="130" height="30" as="geometry" />
        </mxCell>
        <mxCell id="feMU8Ohwre8aJyZwpjGb-9" value="" style="endArrow=classic;html=1;rounded=0;entryX=0;entryY=0.5;entryDx=0;entryDy=0;exitX=1;exitY=0.5;exitDx=0;exitDy=0;flowAnimation=0;curved=0;jumpStyle=arc;" parent="1" source="-YeCzzPsT2VVVUYpRd2U-3" target="feMU8Ohwre8aJyZwpjGb-4" edge="1">
          <mxGeometry width="50" height="50" relative="1" as="geometry">
            <mxPoint x="-364" y="430" as="sourcePoint" />
            <mxPoint x="-314" y="380" as="targetPoint" />
          </mxGeometry>
        </mxCell>
        <mxCell id="feMU8Ohwre8aJyZwpjGb-12" value="" style="endArrow=classic;html=1;rounded=0;exitX=1;exitY=0.5;exitDx=0;exitDy=0;entryX=0;entryY=0.5;entryDx=0;entryDy=0;flowAnimation=0;curved=0;jumpStyle=arc;" parent="1" source="-YeCzzPsT2VVVUYpRd2U-4" target="feMU8Ohwre8aJyZwpjGb-4" edge="1">
          <mxGeometry width="50" height="50" relative="1" as="geometry">
            <mxPoint x="-374" y="470" as="sourcePoint" />
            <mxPoint x="-324" y="420" as="targetPoint" />
          </mxGeometry>
        </mxCell>
        <mxCell id="feMU8Ohwre8aJyZwpjGb-13" value="" style="endArrow=classic;html=1;rounded=0;exitX=1;exitY=0.5;exitDx=0;exitDy=0;entryX=0;entryY=0.5;entryDx=0;entryDy=0;flowAnimation=0;curved=0;jumpStyle=arc;" parent="1" source="-YeCzzPsT2VVVUYpRd2U-8" target="feMU8Ohwre8aJyZwpjGb-5" edge="1">
          <mxGeometry width="50" height="50" relative="1" as="geometry">
            <mxPoint x="-374" y="590" as="sourcePoint" />
            <mxPoint x="-324" y="540" as="targetPoint" />
          </mxGeometry>
        </mxCell>
        <mxCell id="feMU8Ohwre8aJyZwpjGb-15" value="" style="endArrow=classic;html=1;rounded=0;exitX=1;exitY=0.5;exitDx=0;exitDy=0;entryX=0;entryY=0.5;entryDx=0;entryDy=0;flowAnimation=0;curved=0;jumpStyle=arc;" parent="1" source="-YeCzzPsT2VVVUYpRd2U-5" target="feMU8Ohwre8aJyZwpjGb-3" edge="1">
          <mxGeometry width="50" height="50" relative="1" as="geometry">
            <mxPoint x="-354" y="300" as="sourcePoint" />
            <mxPoint x="-304" y="250" as="targetPoint" />
          </mxGeometry>
        </mxCell>
        <mxCell id="7Mjs_d66zHNKERv0nF8z-5" style="edgeStyle=orthogonalEdgeStyle;rounded=0;orthogonalLoop=1;jettySize=auto;html=1;entryX=0;entryY=0.5;entryDx=0;entryDy=0;" parent="1" source="7Mjs_d66zHNKERv0nF8z-2" target="aZa3ijhRNjmpXaoFA8mI-24" edge="1">
          <mxGeometry relative="1" as="geometry" />
        </mxCell>
        <mxCell id="7Mjs_d66zHNKERv0nF8z-6" style="edgeStyle=orthogonalEdgeStyle;rounded=0;orthogonalLoop=1;jettySize=auto;html=1;entryX=0;entryY=0.5;entryDx=0;entryDy=0;" parent="1" source="7Mjs_d66zHNKERv0nF8z-2" target="aZa3ijhRNjmpXaoFA8mI-26" edge="1">
          <mxGeometry relative="1" as="geometry" />
        </mxCell>
        <mxCell id="7Mjs_d66zHNKERv0nF8z-2" value="&lt;b&gt;&lt;font style=&quot;font-size: 15px;&quot;&gt;REF&lt;/font&gt;&lt;/b&gt;" style="image;aspect=fixed;html=1;points=[];align=center;fontSize=12;image=img/lib/azure2/general/Folder_Blank.svg;" parent="1" vertex="1">
          <mxGeometry x="-977" y="411.34" width="46" height="37.33" as="geometry" />
        </mxCell>
        <mxCell id="u7nnCcDvXpUJtUB_9Ts3-2" value="" style="endArrow=classic;html=1;rounded=0;exitX=1;exitY=0.5;exitDx=0;exitDy=0;entryX=0;entryY=0.5;entryDx=0;entryDy=0;" edge="1" parent="1" source="-YeCzzPsT2VVVUYpRd2U-6" target="feMU8Ohwre8aJyZwpjGb-5">
          <mxGeometry width="50" height="50" relative="1" as="geometry">
            <mxPoint x="-370" y="530" as="sourcePoint" />
            <mxPoint x="-320" y="480" as="targetPoint" />
          </mxGeometry>
        </mxCell>
      </root>
    </mxGraphModel>
  </diagram>
</mxfile>
